<svg xmlns="http://www.w3.org/2000/svg" width="64" height="48" shape-rendering="crispEdges"><path fill="#2E222F" d="M21 0h1v1h-1zM22 0h1v1h-1zM23 0h1v1h-1zM24 0h1v1h-1zM25 0h1v1h-1zM18 1h1v1h-1zM19 1h1v1h-1zM20 1h1v1h-1zM21 1h1v1h-1zM22 1h1v1h-1zM23 1h1v1h-1zM24 1h1v1h-1zM25 1h1v1h-1zM26 1h1v1h-1zM27 1h1v1h-1zM28 1h1v1h-1zM29 1h1v1h-1zM16 2h1v1h-1zM17 2h1v1h-1zM18 2h1v1h-1zM19 2h1v1h-1z"/><path fill="#70665D" d="M20 2h1v1h-1zM21 2h1v1h-1z"/><path fill="#2E222F" d="M22 2h1v1h-1zM23 2h1v1h-1z"/><path fill="#70665D" d="M24 2h1v1h-1zM25 2h1v1h-1z"/><path fill="#2E222F" d="M26 2h1v1h-1zM27 2h1v1h-1zM28 2h1v1h-1zM29 2h1v1h-1zM30 2h1v1h-1zM31 2h1v1h-1zM32 2h1v1h-1zM33 2h1v1h-1zM34 2h1v1h-1zM13 3h1v1h-1zM14 3h1v1h-1zM15 3h1v1h-1zM16 3h1v1h-1zM17 3h1v1h-1z"/><path fill="#70665D" d="M18 3h1v1h-1zM19 3h1v1h-1zM20 3h1v1h-1zM21 3h1v1h-1z"/><path fill="#2E222F" d="M22 3h1v1h-1zM23 3h1v1h-1z"/><path fill="#70665D" d="M24 3h1v1h-1zM25 3h1v1h-1zM26 3h1v1h-1zM27 3h1v1h-1zM28 3h1v1h-1zM29 3h1v1h-1z"/><path fill="#2E222F" d="M30 3h1v1h-1zM31 3h1v1h-1zM32 3h1v1h-1zM33 3h1v1h-1zM34 3h1v1h-1zM35 3h1v1h-1zM36 3h1v1h-1zM37 3h1v1h-1zM38 3h1v1h-1zM10 4h1v1h-1zM11 4h1v1h-1zM12 4h1v1h-1zM13 4h1v1h-1zM14 4h1v1h-1z"/><path fill="#70665D" d="M15 4h1v1h-1zM16 4h1v1h-1zM17 4h1v1h-1zM18 4h1v1h-1z"/><path fill="#665E55" d="M19 4h1v1h-1zM20 4h1v1h-1z"/><path fill="#70665D" d="M21 4h1v1h-1z"/><path fill="#2E222F" d="M22 4h1v1h-1zM23 4h1v1h-1z"/><path fill="#70665D" d="M24 4h1v1h-1zM25 4h1v1h-1z"/><path fill="#665E55" d="M26 4h1v1h-1zM27 4h1v1h-1zM28 4h1v1h-1z"/><path fill="#70665D" d="M29 4h1v1h-1zM30 4h1v1h-1zM31 4h1v1h-1zM32 4h1v1h-1zM33 4h1v1h-1zM34 4h1v1h-1z"/><path fill="#2E222F" d="M35 4h1v1h-1zM36 4h1v1h-1zM37 4h1v1h-1zM38 4h1v1h-1zM39 4h1v1h-1zM40 4h1v1h-1zM41 4h1v1h-1zM42 4h1v1h-1zM7 5h1v1H7zM8 5h1v1H8zM9 5h1v1H9zM10 5h1v1h-1zM11 5h1v1h-1z"/><path fill="#70665D" d="M12 5h1v1h-1zM13 5h1v1h-1zM14 5h1v1h-1zM15 5h1v1h-1z"/><path fill="#665E55" d="M16 5h1v1h-1zM17 5h1v1h-1zM18 5h1v1h-1zM19 5h1v1h-1z"/><path fill="#70665D" d="M20 5h1v1h-1zM21 5h1v1h-1z"/><path fill="#2E222F" d="M22 5h1v1h-1zM23 5h1v1h-1z"/><path fill="#70665D" d="M24 5h1v1h-1zM25 5h1v1h-1zM26 5h1v1h-1zM27 5h1v1h-1z"/><path fill="#665E55" d="M28 5h1v1h-1zM29 5h1v1h-1zM30 5h1v1h-1z"/><path fill="#70665D" d="M31 5h1v1h-1zM32 5h1v1h-1zM33 5h1v1h-1zM34 5h1v1h-1zM35 5h1v1h-1zM36 5h1v1h-1z"/><path fill="#665E55" d="M37 5h1v1h-1zM38 5h1v1h-1z"/><path fill="#2E222F" d="M39 5h1v1h-1zM40 5h1v1h-1zM41 5h1v1h-1zM42 5h1v1h-1zM43 5h1v1h-1zM44 5h1v1h-1zM45 5h1v1h-1zM46 5h1v1h-1zM47 5h1v1h-1zM5 6h1v1H5zM6 6h1v1H6zM7 6h1v1H7zM8 6h1v1H8zM9 6h1v1H9z"/><path fill="#70665D" d="M10 6h1v1h-1zM11 6h1v1h-1zM12 6h1v1h-1zM13 6h1v1h-1zM14 6h1v1h-1z"/><path fill="#665E55" d="M15 6h1v1h-1zM16 6h1v1h-1z"/><path fill="#70665D" d="M17 6h1v1h-1zM18 6h1v1h-1zM19 6h1v1h-1zM20 6h1v1h-1zM21 6h1v1h-1z"/><path fill="#2E222F" d="M22 6h1v1h-1zM23 6h1v1h-1z"/><path fill="#70665D" d="M24 6h1v1h-1zM25 6h1v1h-1zM26 6h1v1h-1zM27 6h1v1h-1zM28 6h1v1h-1zM29 6h1v1h-1zM30 6h1v1h-1zM31 6h1v1h-1zM32 6h1v1h-1zM33 6h1v1h-1zM34 6h1v1h-1zM35 6h1v1h-1zM36 6h1v1h-1zM37 6h1v1h-1z"/><path fill="#665E55" d="M38 6h1v1h-1zM39 6h1v1h-1zM40 6h1v1h-1z"/><path fill="#70665D" d="M41 6h1v1h-1zM42 6h1v1h-1z"/><path fill="#2E222F" d="M43 6h1v1h-1zM44 6h1v1h-1zM45 6h1v1h-1zM46 6h1v1h-1zM47 6h1v1h-1zM48 6h1v1h-1zM49 6h1v1h-1zM50 6h1v1h-1zM51 6h1v1h-1zM2 7h1v1H2zM3 7h1v1H3zM4 7h1v1H4zM5 7h1v1H5zM6 7h1v1H6z"/><path fill="#70665D" d="M7 7h1v1H7zM8 7h1v1H8zM9 7h1v1H9zM10 7h1v1h-1zM11 7h1v1h-1zM12 7h1v1h-1zM13 7h1v1h-1zM14 7h1v1h-1zM15 7h1v1h-1zM16 7h1v1h-1zM17 7h1v1h-1zM18 7h1v1h-1zM19 7h1v1h-1zM20 7h1v1h-1zM21 7h1v1h-1z"/><path fill="#2E222F" d="M22 7h1v1h-1zM23 7h1v1h-1z"/><path fill="#70665D" d="M24 7h1v1h-1zM25 7h1v1h-1zM26 7h1v1h-1zM27 7h1v1h-1zM28 7h1v1h-1zM29 7h1v1h-1zM30 7h1v1h-1zM31 7h1v1h-1zM32 7h1v1h-1zM33 7h1v1h-1zM34 7h1v1h-1zM35 7h1v1h-1zM36 7h1v1h-1zM37 7h1v1h-1zM38 7h1v1h-1zM39 7h1v1h-1zM40 7h1v1h-1zM41 7h1v1h-1zM42 7h1v1h-1zM43 7h1v1h-1zM44 7h1v1h-1zM45 7h1v1h-1zM46 7h1v1h-1zM47 7h1v1h-1z"/><path fill="#2E222F" d="M48 7h1v1h-1zM49 7h1v1h-1zM50 7h1v1h-1zM51 7h1v1h-1zM52 7h1v1h-1zM53 7h1v1h-1zM54 7h1v1h-1zM55 7h1v1h-1zM56 7h1v1h-1zM0 8h1v1H0zM1 8h1v1H1zM2 8h1v1H2zM3 8h1v1H3z"/><path fill="#70665D" d="M4 8h1v1H4zM5 8h1v1H5zM6 8h1v1H6zM7 8h1v1H7zM8 8h1v1H8zM9 8h1v1H9zM10 8h1v1h-1zM11 8h1v1h-1zM12 8h1v1h-1zM13 8h1v1h-1zM14 8h1v1h-1zM15 8h1v1h-1zM16 8h1v1h-1zM17 8h1v1h-1zM18 8h1v1h-1zM19 8h1v1h-1zM20 8h1v1h-1zM21 8h1v1h-1z"/><path fill="#2E222F" d="M22 8h1v1h-1zM23 8h1v1h-1z"/><path fill="#70665D" d="M24 8h1v1h-1zM25 8h1v1h-1zM26 8h1v1h-1zM27 8h1v1h-1zM28 8h1v1h-1zM29 8h1v1h-1z"/><path fill="#665E55" d="M30 8h1v1h-1zM31 8h1v1h-1zM32 8h1v1h-1zM33 8h1v1h-1z"/><path fill="#70665D" d="M34 8h1v1h-1zM35 8h1v1h-1zM36 8h1v1h-1zM37 8h1v1h-1zM38 8h1v1h-1zM39 8h1v1h-1zM40 8h1v1h-1zM41 8h1v1h-1zM42 8h1v1h-1zM43 8h1v1h-1zM44 8h1v1h-1zM45 8h1v1h-1zM46 8h1v1h-1zM47 8h1v1h-1zM48 8h1v1h-1zM49 8h1v1h-1zM50 8h1v1h-1zM51 8h1v1h-1z"/><path fill="#2E222F" d="M52 8h1v1h-1zM53 8h1v1h-1zM54 8h1v1h-1zM55 8h1v1h-1zM56 8h1v1h-1zM57 8h1v1h-1zM58 8h1v1h-1zM59 8h1v1h-1zM60 8h1v1h-1zM0 9h1v1H0zM1 9h1v1H1z"/><path fill="#70665D" d="M2 9h1v1H2zM3 9h1v1H3zM4 9h1v1H4zM5 9h1v1H5zM6 9h1v1H6zM7 9h1v1H7zM8 9h1v1H8z"/><path fill="#665E55" d="M9 9h1v1H9zM10 9h1v1h-1z"/><path fill="#70665D" d="M11 9h1v1h-1zM12 9h1v1h-1zM13 9h1v1h-1zM14 9h1v1h-1z"/><path fill="#665E55" d="M15 9h1v1h-1zM16 9h1v1h-1zM17 9h1v1h-1zM18 9h1v1h-1z"/><path fill="#70665D" d="M19 9h1v1h-1zM20 9h1v1h-1z"/><path fill="#2E222F" d="M21 9h1v1h-1zM22 9h1v1h-1zM23 9h1v1h-1zM24 9h1v1h-1zM25 9h1v1h-1z"/><path fill="#70665D" d="M26 9h1v1h-1zM27 9h1v1h-1zM28 9h1v1h-1zM29 9h1v1h-1zM30 9h1v1h-1zM31 9h1v1h-1zM32 9h1v1h-1z"/><path fill="#665E55" d="M33 9h1v1h-1zM34 9h1v1h-1z"/><path fill="#70665D" d="M35 9h1v1h-1zM36 9h1v1h-1zM37 9h1v1h-1zM38 9h1v1h-1zM39 9h1v1h-1zM40 9h1v1h-1zM41 9h1v1h-1zM42 9h1v1h-1zM43 9h1v1h-1zM44 9h1v1h-1zM45 9h1v1h-1zM46 9h1v1h-1z"/><path fill="#665E55" d="M47 9h1v1h-1zM48 9h1v1h-1z"/><path fill="#70665D" d="M49 9h1v1h-1zM50 9h1v1h-1zM51 9h1v1h-1zM52 9h1v1h-1zM53 9h1v1h-1zM54 9h1v1h-1zM55 9h1v1h-1zM56 9h1v1h-1z"/><path fill="#2E222F" d="M57 9h1v1h-1zM58 9h1v1h-1zM59 9h1v1h-1zM60 9h1v1h-1zM61 9h1v1h-1zM62 9h1v1h-1zM63 9h1v1h-1zM0 10h1v1H0zM1 10h1v1H1z"/><path fill="#70665D" d="M2 10h1v1H2zM3 10h1v1H3zM4 10h1v1H4zM5 10h1v1H5z"/><path fill="#665E55" d="M6 10h1v1H6zM7 10h1v1H7zM8 10h1v1H8zM9 10h1v1H9z"/><path fill="#70665D" d="M10 10h1v1h-1zM11 10h1v1h-1zM12 10h1v1h-1z"/><path fill="#665E55" d="M13 10h1v1h-1zM14 10h1v1h-1zM15 10h1v1h-1z"/><path fill="#70665D" d="M16 10h1v1h-1zM17 10h1v1h-1z"/><path fill="#2E222F" d="M18 10h1v1h-1zM19 10h1v1h-1zM20 10h1v1h-1zM21 10h1v1h-1zM22 10h1v1h-1zM23 10h1v1h-1zM24 10h1v1h-1zM25 10h1v1h-1zM26 10h1v1h-1zM27 10h1v1h-1zM28 10h1v1h-1zM29 10h1v1h-1z"/><path fill="#70665D" d="M30 10h1v1h-1zM31 10h1v1h-1zM32 10h1v1h-1zM33 10h1v1h-1zM34 10h1v1h-1zM35 10h1v1h-1zM36 10h1v1h-1zM37 10h1v1h-1zM38 10h1v1h-1zM39 10h1v1h-1zM40 10h1v1h-1zM41 10h1v1h-1zM42 10h1v1h-1zM43 10h1v1h-1zM44 10h1v1h-1zM45 10h1v1h-1zM46 10h1v1h-1zM47 10h1v1h-1z"/><path fill="#665E55" d="M48 10h1v1h-1zM49 10h1v1h-1zM50 10h1v1h-1zM51 10h1v1h-1z"/><path fill="#70665D" d="M52 10h1v1h-1zM53 10h1v1h-1zM54 10h1v1h-1zM55 10h1v1h-1zM56 10h1v1h-1zM57 10h1v1h-1zM58 10h1v1h-1zM59 10h1v1h-1zM60 10h1v1h-1z"/><path fill="#2E222F" d="M61 10h1v1h-1zM62 10h1v1h-1zM63 10h1v1h-1zM0 11h1v1H0zM1 11h1v1H1z"/><path fill="#70665D" d="M2 11h1v1H2zM3 11h1v1H3zM4 11h1v1H4z"/><path fill="#665E55" d="M5 11h1v1H5zM6 11h1v1H6z"/><path fill="#70665D" d="M7 11h1v1H7zM8 11h1v1H8zM9 11h1v1H9zM10 11h1v1h-1zM11 11h1v1h-1zM12 11h1v1h-1z"/><path fill="#665E55" d="M13 11h1v1h-1z"/><path fill="#70665D" d="M14 11h1v1h-1zM15 11h1v1h-1z"/><path fill="#2E222F" d="M16 11h1v1h-1zM17 11h1v1h-1zM18 11h1v1h-1zM19 11h1v1h-1z"/><path fill="#E3B291" d="M20 11h1v1h-1zM21 11h1v1h-1zM22 11h1v1h-1zM23 11h1v1h-1zM24 11h1v1h-1zM25 11h1v1h-1z"/><path fill="#2E222F" d="M26 11h1v1h-1zM27 11h1v1h-1zM28 11h1v1h-1zM29 11h1v1h-1zM30 11h1v1h-1zM31 11h1v1h-1zM32 11h1v1h-1zM33 11h1v1h-1zM34 11h1v1h-1z"/><path fill="#70665D" d="M35 11h1v1h-1zM36 11h1v1h-1zM37 11h1v1h-1zM38 11h1v1h-1zM39 11h1v1h-1zM40 11h1v1h-1zM41 11h1v1h-1zM42 11h1v1h-1zM43 11h1v1h-1zM44 11h1v1h-1zM45 11h1v1h-1zM46 11h1v1h-1zM47 11h1v1h-1zM48 11h1v1h-1zM49 11h1v1h-1zM50 11h1v1h-1zM51 11h1v1h-1zM52 11h1v1h-1zM53 11h1v1h-1zM54 11h1v1h-1zM55 11h1v1h-1zM56 11h1v1h-1zM57 11h1v1h-1zM58 11h1v1h-1zM59 11h1v1h-1zM60 11h1v1h-1zM61 11h1v1h-1z"/><path fill="#2E222F" d="M62 11h1v1h-1zM63 11h1v1h-1zM0 12h1v1H0zM1 12h1v1H1z"/><path fill="#70665D" d="M2 12h1v1H2zM3 12h1v1H3zM4 12h1v1H4zM5 12h1v1H5zM6 12h1v1H6zM7 12h1v1H7zM8 12h1v1H8zM9 12h1v1H9zM10 12h1v1h-1zM11 12h1v1h-1zM12 12h1v1h-1z"/><path fill="#2E222F" d="M13 12h1v1h-1zM14 12h1v1h-1zM15 12h1v1h-1zM16 12h1v1h-1zM17 12h1v1h-1z"/><path fill="#E3B291" d="M18 12h1v1h-1zM19 12h1v1h-1zM20 12h1v1h-1zM21 12h1v1h-1zM22 12h1v1h-1zM23 12h1v1h-1zM24 12h1v1h-1zM25 12h1v1h-1zM26 12h1v1h-1zM27 12h1v1h-1zM28 12h1v1h-1zM29 12h1v1h-1z"/><path fill="#2E222F" d="M30 12h1v1h-1zM31 12h1v1h-1zM32 12h1v1h-1zM33 12h1v1h-1zM34 12h1v1h-1zM35 12h1v1h-1zM36 12h1v1h-1zM37 12h1v1h-1zM38 12h1v1h-1z"/><path fill="#70665D" d="M39 12h1v1h-1zM40 12h1v1h-1zM41 12h1v1h-1zM42 12h1v1h-1zM43 12h1v1h-1zM44 12h1v1h-1zM45 12h1v1h-1zM46 12h1v1h-1zM47 12h1v1h-1zM48 12h1v1h-1zM49 12h1v1h-1zM50 12h1v1h-1zM51 12h1v1h-1zM52 12h1v1h-1zM53 12h1v1h-1zM54 12h1v1h-1zM55 12h1v1h-1zM56 12h1v1h-1zM57 12h1v1h-1zM58 12h1v1h-1zM59 12h1v1h-1zM60 12h1v1h-1zM61 12h1v1h-1z"/><path fill="#2E222F" d="M62 12h1v1h-1zM63 12h1v1h-1zM0 13h1v1H0zM1 13h1v1H1z"/><path fill="#70665D" d="M2 13h1v1H2zM3 13h1v1H3zM4 13h1v1H4zM5 13h1v1H5zM6 13h1v1H6zM7 13h1v1H7zM8 13h1v1H8zM9 13h1v1H9z"/><path fill="#2E222F" d="M10 13h1v1h-1zM11 13h1v1h-1zM12 13h1v1h-1zM13 13h1v1h-1zM14 13h1v1h-1z"/><path fill="#E3B291" d="M15 13h1v1h-1zM16 13h1v1h-1zM17 13h1v1h-1zM18 13h1v1h-1zM19 13h1v1h-1z"/><path fill="#FCC6A1" d="M20 13h1v1h-1zM21 13h1v1h-1zM22 13h1v1h-1zM23 13h1v1h-1zM24 13h1v1h-1zM25 13h1v1h-1z"/><path fill="#E3B291" d="M26 13h1v1h-1zM27 13h1v1h-1zM28 13h1v1h-1zM29 13h1v1h-1zM30 13h1v1h-1zM31 13h1v1h-1zM32 13h1v1h-1zM33 13h1v1h-1zM34 13h1v1h-1z"/><path fill="#2E222F" d="M35 13h1v1h-1zM36 13h1v1h-1zM37 13h1v1h-1zM38 13h1v1h-1zM39 13h1v1h-1zM40 13h1v1h-1zM41 13h1v1h-1zM42 13h1v1h-1z"/><path fill="#70665D" d="M43 13h1v1h-1z"/><path fill="#665E55" d="M44 13h1v1h-1zM45 13h1v1h-1zM46 13h1v1h-1zM47 13h1v1h-1zM48 13h1v1h-1z"/><path fill="#70665D" d="M49 13h1v1h-1zM50 13h1v1h-1zM51 13h1v1h-1zM52 13h1v1h-1zM53 13h1v1h-1zM54 13h1v1h-1zM55 13h1v1h-1zM56 13h1v1h-1zM57 13h1v1h-1zM58 13h1v1h-1zM59 13h1v1h-1zM60 13h1v1h-1zM61 13h1v1h-1z"/><path fill="#2E222F" d="M62 13h1v1h-1zM63 13h1v1h-1zM0 14h1v1H0zM1 14h1v1H1z"/><path fill="#70665D" d="M2 14h1v1H2zM3 14h1v1H3zM4 14h1v1H4zM5 14h1v1H5zM6 14h1v1H6z"/><path fill="#2E222F" d="M7 14h1v1H7zM8 14h1v1H8zM9 14h1v1H9zM10 14h1v1h-1zM11 14h1v1h-1z"/><path fill="#E3B291" d="M12 14h1v1h-1zM13 14h1v1h-1zM14 14h1v1h-1zM15 14h1v1h-1zM16 14h1v1h-1zM17 14h1v1h-1z"/><path fill="#FCC6A1" d="M18 14h1v1h-1zM19 14h1v1h-1zM20 14h1v1h-1z"/><path fill="#2E222F" d="M21 14h1v1h-1zM22 14h1v1h-1zM23 14h1v1h-1zM24 14h1v1h-1zM25 14h1v1h-1z"/><path fill="#FCC6A1" d="M26 14h1v1h-1zM27 14h1v1h-1zM28 14h1v1h-1zM29 14h1v1h-1z"/><path fill="#E3B291" d="M30 14h1v1h-1zM31 14h1v1h-1zM32 14h1v1h-1zM33 14h1v1h-1zM34 14h1v1h-1zM35 14h1v1h-1zM36 14h1v1h-1zM37 14h1v1h-1zM38 14h1v1h-1z"/><path fill="#2E222F" d="M39 14h1v1h-1zM40 14h1v1h-1zM41 14h1v1h-1zM42 14h1v1h-1zM43 14h1v1h-1zM44 14h1v1h-1zM45 14h1v1h-1zM46 14h1v1h-1zM47 14h1v1h-1z"/><path fill="#665E55" d="M48 14h1v1h-1zM49 14h1v1h-1z"/><path fill="#70665D" d="M50 14h1v1h-1zM51 14h1v1h-1zM52 14h1v1h-1zM53 14h1v1h-1zM54 14h1v1h-1zM55 14h1v1h-1zM56 14h1v1h-1zM57 14h1v1h-1zM58 14h1v1h-1zM59 14h1v1h-1zM60 14h1v1h-1zM61 14h1v1h-1z"/><path fill="#2E222F" d="M62 14h1v1h-1zM63 14h1v1h-1zM0 15h1v1H0zM1 15h1v1H1z"/><path fill="#70665D" d="M2 15h1v1H2zM3 15h1v1H3zM4 15h1v1H4z"/><path fill="#2E222F" d="M5 15h1v1H5zM6 15h1v1H6zM7 15h1v1H7zM8 15h1v1H8zM9 15h1v1H9z"/><path fill="#E3B291" d="M10 15h1v1h-1zM11 15h1v1h-1zM12 15h1v1h-1zM13 15h1v1h-1zM14 15h1v1h-1z"/><path fill="#FCC6A1" d="M15 15h1v1h-1zM16 15h1v1h-1zM17 15h1v1h-1zM18 15h1v1h-1z"/><path fill="#2E222F" d="M19 15h1v1h-1zM20 15h1v1h-1z"/><path fill="#70665D" d="M21 15h1v1h-1z"/><path fill="#2E222F" d="M22 15h1v1h-1zM23 15h1v1h-1z"/><path fill="#70665D" d="M24 15h1v1h-1zM25 15h1v1h-1z"/><path fill="#2E222F" d="M26 15h1v1h-1zM27 15h1v1h-1zM28 15h1v1h-1zM29 15h1v1h-1z"/><path fill="#FCC6A1" d="M30 15h1v1h-1zM31 15h1v1h-1zM32 15h1v1h-1zM33 15h1v1h-1z"/><path fill="#E3B291" d="M34 15h1v1h-1zM35 15h1v1h-1zM36 15h1v1h-1zM37 15h1v1h-1zM38 15h1v1h-1zM39 15h1v1h-1zM40 15h1v1h-1zM41 15h1v1h-1zM42 15h1v1h-1z"/><path fill="#2E222F" d="M43 15h1v1h-1zM44 15h1v1h-1zM45 15h1v1h-1zM46 15h1v1h-1zM47 15h1v1h-1zM48 15h1v1h-1zM49 15h1v1h-1zM50 15h1v1h-1zM51 15h1v1h-1z"/><path fill="#70665D" d="M52 15h1v1h-1zM53 15h1v1h-1zM54 15h1v1h-1zM55 15h1v1h-1zM56 15h1v1h-1zM57 15h1v1h-1zM58 15h1v1h-1zM59 15h1v1h-1zM60 15h1v1h-1zM61 15h1v1h-1z"/><path fill="#2E222F" d="M62 15h1v1h-1zM63 15h1v1h-1zM0 16h1v1H0zM1 16h1v1H1zM2 16h1v1H2zM3 16h1v1H3zM4 16h1v1H4zM5 16h1v1H5zM6 16h1v1H6z"/><path fill="#E3B291" d="M7 16h1v1H7zM8 16h1v1H8zM9 16h1v1H9zM10 16h1v1h-1zM11 16h1v1h-1z"/><path fill="#FCC6A1" d="M12 16h1v1h-1zM13 16h1v1h-1zM14 16h1v1h-1zM15 16h1v1h-1z"/><path fill="#2E222F" d="M16 16h1v1h-1zM17 16h1v1h-1zM18 16h1v1h-1z"/><path fill="#70665D" d="M19 16h1v1h-1zM20 16h1v1h-1zM21 16h1v1h-1z"/><path fill="#2E222F" d="M22 16h1v1h-1zM23 16h1v1h-1z"/><path fill="#70665D" d="M24 16h1v1h-1zM25 16h1v1h-1zM26 16h1v1h-1zM27 16h1v1h-1zM28 16h1v1h-1zM29 16h1v1h-1z"/><path fill="#2E222F" d="M30 16h1v1h-1zM31 16h1v1h-1zM32 16h1v1h-1z"/><path fill="#FCC6A1" d="M33 16h1v1h-1zM34 16h1v1h-1zM35 16h1v1h-1zM36 16h1v1h-1zM37 16h1v1h-1z"/><path fill="#E3B291" d="M38 16h1v1h-1zM39 16h1v1h-1zM40 16h1v1h-1zM41 16h1v1h-1zM42 16h1v1h-1zM43 16h1v1h-1zM44 16h1v1h-1zM45 16h1v1h-1zM46 16h1v1h-1zM47 16h1v1h-1z"/><path fill="#2E222F" d="M48 16h1v1h-1zM49 16h1v1h-1zM50 16h1v1h-1zM51 16h1v1h-1zM52 16h1v1h-1zM53 16h1v1h-1zM54 16h1v1h-1zM55 16h1v1h-1zM56 16h1v1h-1z"/><path fill="#70665D" d="M57 16h1v1h-1zM58 16h1v1h-1zM59 16h1v1h-1z"/><path fill="#665E55" d="M60 16h1v1h-1zM61 16h1v1h-1z"/><path fill="#2E222F" d="M62 16h1v1h-1zM63 16h1v1h-1zM0 17h1v1H0zM1 17h1v1H1zM2 17h1v1H2zM3 17h1v1H3z"/><path fill="#E3B291" d="M4 17h1v1H4zM5 17h1v1H5zM6 17h1v1H6zM7 17h1v1H7zM8 17h1v1H8zM9 17h1v1H9z"/><path fill="#FCC6A1" d="M10 17h1v1h-1zM11 17h1v1h-1zM12 17h1v1h-1z"/><path fill="#2E222F" d="M13 17h1v1h-1zM14 17h1v1h-1zM15 17h1v1h-1z"/><path fill="#70665D" d="M16 17h1v1h-1zM17 17h1v1h-1zM18 17h1v1h-1zM19 17h1v1h-1zM20 17h1v1h-1z"/><path fill="#2E222F" d="M21 17h1v1h-1zM22 17h1v1h-1zM23 17h1v1h-1zM24 17h1v1h-1zM25 17h1v1h-1z"/><path fill="#70665D" d="M26 17h1v1h-1zM27 17h1v1h-1zM28 17h1v1h-1zM29 17h1v1h-1zM30 17h1v1h-1zM31 17h1v1h-1z"/><path fill="#2E222F" d="M32 17h1v1h-1z"/><path fill="#FCC6A1" d="M33 17h1v1h-1zM34 17h1v1h-1zM35 17h1v1h-1zM36 17h1v1h-1zM37 17h1v1h-1zM38 17h1v1h-1zM39 17h1v1h-1zM40 17h1v1h-1zM41 17h1v1h-1z"/><path fill="#E3B291" d="M42 17h1v1h-1zM43 17h1v1h-1zM44 17h1v1h-1zM45 17h1v1h-1zM46 17h1v1h-1zM47 17h1v1h-1zM48 17h1v1h-1zM49 17h1v1h-1zM50 17h1v1h-1zM51 17h1v1h-1z"/><path fill="#2E222F" d="M52 17h1v1h-1zM53 17h1v1h-1zM54 17h1v1h-1zM55 17h1v1h-1zM56 17h1v1h-1zM57 17h1v1h-1zM58 17h1v1h-1zM59 17h1v1h-1zM60 17h1v1h-1z"/><path fill="#665E55" d="M61 17h1v1h-1z"/><path fill="#2E222F" d="M62 17h1v1h-1zM63 17h1v1h-1zM0 18h1v1H0zM1 18h1v1H1zM2 18h1v1H2z"/><path fill="#E3B291" d="M3 18h1v1H3zM4 18h1v1H4zM5 18h1v1H5zM6 18h1v1H6z"/><path fill="#FCC6A1" d="M7 18h1v1H7zM8 18h1v1H8zM9 18h1v1H9zM10 18h1v1h-1z"/><path fill="#2E222F" d="M11 18h1v1h-1zM12 18h1v1h-1z"/><path fill="#70665D" d="M13 18h1v1h-1zM14 18h1v1h-1zM15 18h1v1h-1zM16 18h1v1h-1zM17 18h1v1h-1zM18 18h1v1h-1z"/><path fill="#2E222F" d="M19 18h1v1h-1zM20 18h1v1h-1z"/><path fill="#E3B291" d="M21 18h1v1h-1zM22 18h1v1h-1zM23 18h1v1h-1zM24 18h1v1h-1zM25 18h1v1h-1z"/><path fill="#2E222F" d="M26 18h1v1h-1zM27 18h1v1h-1zM28 18h1v1h-1zM29 18h1v1h-1z"/><path fill="#70665D" d="M30 18h1v1h-1zM31 18h1v1h-1z"/><path fill="#2E222F" d="M32 18h1v1h-1z"/><path fill="#FCC6A1" d="M33 18h1v1h-1zM34 18h1v1h-1zM35 18h1v1h-1zM36 18h1v1h-1zM37 18h1v1h-1zM38 18h1v1h-1zM39 18h1v1h-1zM40 18h1v1h-1zM41 18h1v1h-1zM42 18h1v1h-1zM43 18h1v1h-1zM44 18h1v1h-1zM45 18h1v1h-1z"/><path fill="#E3B291" d="M46 18h1v1h-1zM47 18h1v1h-1zM48 18h1v1h-1zM49 18h1v1h-1zM50 18h1v1h-1zM51 18h1v1h-1zM52 18h1v1h-1z"/><path fill="#B9B76F" d="M53 18h1v1h-1z"/><path fill="#8B9859" d="M54 18h1v1h-1z"/><path fill="#2E222F" d="M55 18h1v1h-1zM56 18h1v1h-1zM57 18h1v1h-1zM58 18h1v1h-1zM59 18h1v1h-1zM60 18h1v1h-1zM61 18h1v1h-1zM62 18h1v1h-1zM63 18h1v1h-1zM1 19h1v1H1zM2 19h1v1H2z"/><path fill="#E3B291" d="M3 19h1v1H3zM4 19h1v1H4z"/><path fill="#FCC6A1" d="M5 19h1v1H5zM6 19h1v1H6zM7 19h1v1H7z"/><path fill="#2E222F" d="M8 19h1v1H8zM9 19h1v1H9zM10 19h1v1h-1z"/><path fill="#70665D" d="M11 19h1v1h-1zM12 19h1v1h-1zM13 19h1v1h-1zM14 19h1v1h-1zM15 19h1v1h-1z"/><path fill="#2E222F" d="M16 19h1v1h-1zM17 19h1v1h-1zM18 19h1v1h-1z"/><path fill="#E3B291" d="M19 19h1v1h-1zM20 19h1v1h-1zM21 19h1v1h-1zM22 19h1v1h-1zM23 19h1v1h-1zM24 19h1v1h-1zM25 19h1v1h-1zM26 19h1v1h-1zM27 19h1v1h-1zM28 19h1v1h-1zM29 19h1v1h-1z"/><path fill="#2E222F" d="M30 19h1v1h-1zM31 19h1v1h-1zM32 19h1v1h-1z"/><path fill="#FCC6A1" d="M33 19h1v1h-1zM34 19h1v1h-1zM35 19h1v1h-1zM36 19h1v1h-1zM37 19h1v1h-1zM38 19h1v1h-1zM39 19h1v1h-1zM40 19h1v1h-1zM41 19h1v1h-1z"/><path fill="#E5E5E5" d="M42 19h1v1h-1zM43 19h1v1h-1z"/><path fill="#EBEBEB" d="M44 19h1v1h-1z"/><path fill="#E5E5E5" d="M45 19h1v1h-1z"/><path fill="#FCC6A1" d="M46 19h1v1h-1zM47 19h1v1h-1zM48 19h1v1h-1zM49 19h1v1h-1zM50 19h1v1h-1z"/><path fill="#E3B291" d="M51 19h1v1h-1zM52 19h1v1h-1z"/><path fill="#C7BB69" d="M53 19h1v1h-1z"/><path fill="#B9B76F" d="M54 19h1v1h-1z"/><path fill="#2E222F" d="M55 19h1v1h-1zM56 19h1v1h-1zM61 19h1v1h-1zM62 19h1v1h-1zM63 19h1v1h-1zM1 20h1v1H1zM2 20h1v1H2z"/><path fill="#FCC6A1" d="M3 20h1v1H3zM4 20h1v1H4zM5 20h1v1H5z"/><path fill="#2E222F" d="M6 20h1v1H6zM7 20h1v1H7z"/><path fill="#70665D" d="M8 20h1v1H8zM9 20h1v1H9zM10 20h1v1h-1zM11 20h1v1h-1zM12 20h1v1h-1zM13 20h1v1h-1z"/><path fill="#2E222F" d="M14 20h1v1h-1zM15 20h1v1h-1z"/><path fill="#E3B291" d="M16 20h1v1h-1zM17 20h1v1h-1zM18 20h1v1h-1zM19 20h1v1h-1zM20 20h1v1h-1z"/><path fill="#D0D0D0" d="M21 20h1v1h-1zM22 20h1v1h-1z"/><path fill="#DDD" d="M23 20h1v1h-1z"/><path fill="#D0D0D0" d="M24 20h1v1h-1z"/><path fill="#FCC6A1" d="M25 20h1v1h-1z"/><path fill="#E3B291" d="M26 20h1v1h-1zM27 20h1v1h-1zM28 20h1v1h-1zM29 20h1v1h-1zM30 20h1v1h-1zM31 20h1v1h-1zM32 20h1v1h-1z"/><path fill="#FCC6A1" d="M33 20h1v1h-1zM34 20h1v1h-1zM35 20h1v1h-1zM36 20h1v1h-1zM37 20h1v1h-1zM38 20h1v1h-1zM39 20h1v1h-1zM40 20h1v1h-1zM41 20h1v1h-1z"/><path fill="#E5E5E5" d="M42 20h1v1h-1zM43 20h1v1h-1z"/><path fill="#EBEBEB" d="M44 20h1v1h-1zM45 20h1v1h-1z"/><path fill="#FCC6A1" d="M46 20h1v1h-1zM47 20h1v1h-1zM48 20h1v1h-1zM49 20h1v1h-1zM50 20h1v1h-1zM51 20h1v1h-1zM52 20h1v1h-1z"/><path fill="#A2C732" d="M53 20h1v1h-1zM54 20h1v1h-1z"/><path fill="#2E222F" d="M55 20h1v1h-1zM56 20h1v1h-1zM1 21h1v1H1zM2 21h1v1H2z"/><path fill="#FCC6A1" d="M3 21h1v1H3z"/><path fill="#2E222F" d="M4 21h1v1H4zM5 21h1v1H5z"/><path fill="#70665D" d="M6 21h1v1H6zM7 21h1v1H7zM8 21h1v1H8zM9 21h1v1H9zM10 21h1v1h-1z"/><path fill="#2E222F" d="M11 21h1v1h-1zM12 21h1v1h-1zM13 21h1v1h-1z"/><path fill="#E3B291" d="M14 21h1v1h-1zM15 21h1v1h-1zM16 21h1v1h-1zM17 21h1v1h-1zM18 21h1v1h-1z"/><path fill="#FCC6A1" d="M19 21h1v1h-1zM20 21h1v1h-1z"/><path fill="#D0D0D0" d="M21 21h1v1h-1zM22 21h1v1h-1z"/><path fill="#DDD" d="M23 21h1v1h-1zM24 21h1v1h-1z"/><path fill="#FCC6A1" d="M25 21h1v1h-1zM26 21h1v1h-1zM27 21h1v1h-1zM28 21h1v1h-1zM29 21h1v1h-1z"/><path fill="#E3B291" d="M30 21h1v1h-1zM31 21h1v1h-1zM32 21h1v1h-1z"/><path fill="#FCC6A1" d="M33 21h1v1h-1zM34 21h1v1h-1zM35 21h1v1h-1zM36 21h1v1h-1zM37 21h1v1h-1zM38 21h1v1h-1zM39 21h1v1h-1zM40 21h1v1h-1zM41 21h1v1h-1z"/><path fill="#E5E5E5" d="M42 21h1v1h-1z"/><path fill="#EBEBEB" d="M43 21h1v1h-1zM44 21h1v1h-1zM45 21h1v1h-1z"/><path fill="#FCC6A1" d="M46 21h1v1h-1zM47 21h1v1h-1zM48 21h1v1h-1zM49 21h1v1h-1zM50 21h1v1h-1zM51 21h1v1h-1zM52 21h1v1h-1z"/><path fill="#80BC40" d="M53 21h1v1h-1z"/><path fill="#A2C732" d="M54 21h1v1h-1z"/><path fill="#2E222F" d="M55 21h1v1h-1zM56 21h1v1h-1zM1 22h1v1H1zM2 22h1v1H2z"/><path fill="#FCC6A1" d="M3 22h1v1H3z"/><path fill="#2E222F" d="M4 22h1v1H4z"/><path fill="#70665D" d="M5 22h1v1H5zM6 22h1v1H6zM7 22h1v1H7z"/><path fill="#2E222F" d="M8 22h1v1H8zM9 22h1v1H9zM10 22h1v1h-1z"/><path fill="#E3B291" d="M11 22h1v1h-1zM12 22h1v1h-1zM13 22h1v1h-1zM14 22h1v1h-1zM15 22h1v1h-1z"/><path fill="#FCC6A1" d="M16 22h1v1h-1zM17 22h1v1h-1zM18 22h1v1h-1zM19 22h1v1h-1zM20 22h1v1h-1z"/><path fill="#D0D0D0" d="M21 22h1v1h-1z"/><path fill="#DDD" d="M22 22h1v1h-1zM23 22h1v1h-1zM24 22h1v1h-1z"/><path fill="#FCC6A1" d="M25 22h1v1h-1zM26 22h1v1h-1zM27 22h1v1h-1zM28 22h1v1h-1zM29 22h1v1h-1zM30 22h1v1h-1zM31 22h1v1h-1zM32 22h1v1h-1zM33 22h1v1h-1zM34 22h1v1h-1zM35 22h1v1h-1zM36 22h1v1h-1zM37 22h1v1h-1zM38 22h1v1h-1zM39 22h1v1h-1zM40 22h1v1h-1zM41 22h1v1h-1z"/><path fill="#EBEBEB" d="M42 22h1v1h-1zM43 22h1v1h-1zM44 22h1v1h-1z"/><path fill="#E5E5E5" d="M45 22h1v1h-1z"/><path fill="#FCC6A1" d="M46 22h1v1h-1zM47 22h1v1h-1zM48 22h1v1h-1zM49 22h1v1h-1zM50 22h1v1h-1zM51 22h1v1h-1zM52 22h1v1h-1z"/><path fill="#80BC40" d="M53 22h1v1h-1z"/><path fill="#12750D" d="M54 22h1v1h-1z"/><path fill="#2E222F" d="M55 22h1v1h-1zM56 22h1v1h-1zM1 23h1v1H1zM2 23h1v1H2z"/><path fill="#FCC6A1" d="M3 23h1v1H3z"/><path fill="#2E222F" d="M4 23h1v1H4z"/><path fill="#70665D" d="M5 23h1v1H5z"/><path fill="#2E222F" d="M6 23h1v1H6zM7 23h1v1H7z"/><path fill="#E3B291" d="M8 23h1v1H8zM9 23h1v1H9zM10 23h1v1h-1zM11 23h1v1h-1zM12 23h1v1h-1zM13 23h1v1h-1z"/><path fill="#FCC6A1" d="M14 23h1v1h-1zM15 23h1v1h-1zM16 23h1v1h-1zM17 23h1v1h-1zM18 23h1v1h-1zM19 23h1v1h-1zM20 23h1v1h-1z"/><path fill="#DDD" d="M21 23h1v1h-1zM22 23h1v1h-1zM23 23h1v1h-1z"/><path fill="#D0D0D0" d="M24 23h1v1h-1z"/><path fill="#FCC6A1" d="M25 23h1v1h-1zM26 23h1v1h-1zM27 23h1v1h-1zM28 23h1v1h-1zM29 23h1v1h-1zM30 23h1v1h-1zM31 23h1v1h-1zM32 23h1v1h-1zM33 23h1v1h-1zM34 23h1v1h-1zM35 23h1v1h-1zM36 23h1v1h-1zM37 23h1v1h-1zM38 23h1v1h-1zM39 23h1v1h-1zM40 23h1v1h-1zM41 23h1v1h-1z"/><path fill="#EBEBEB" d="M42 23h1v1h-1zM43 23h1v1h-1z"/><path fill="#E5E5E5" d="M44 23h1v1h-1zM45 23h1v1h-1z"/><path fill="#FCC6A1" d="M46 23h1v1h-1zM47 23h1v1h-1zM48 23h1v1h-1zM49 23h1v1h-1zM50 23h1v1h-1zM51 23h1v1h-1zM52 23h1v1h-1z"/><path fill="#A2C732" d="M53 23h1v1h-1z"/><path fill="#12750D" d="M54 23h1v1h-1z"/><path fill="#2E222F" d="M55 23h1v1h-1zM56 23h1v1h-1zM1 24h1v1H1zM2 24h1v1H2z"/><path fill="#FCC6A1" d="M3 24h1v1H3z"/><path fill="#2E222F" d="M4 24h1v1H4zM5 24h1v1H5z"/><path fill="#E3B291" d="M6 24h1v1H6zM7 24h1v1H7z"/><path fill="#DDD" d="M8 24h1v1H8z"/><path fill="#D0D0D0" d="M9 24h1v1H9z"/><path fill="#DDD" d="M10 24h1v1h-1z"/><path fill="#FCC6A1" d="M11 24h1v1h-1zM12 24h1v1h-1zM13 24h1v1h-1zM14 24h1v1h-1zM15 24h1v1h-1zM16 24h1v1h-1zM17 24h1v1h-1zM18 24h1v1h-1zM19 24h1v1h-1zM20 24h1v1h-1z"/><path fill="#DDD" d="M21 24h1v1h-1zM22 24h1v1h-1z"/><path fill="#D0D0D0" d="M23 24h1v1h-1zM24 24h1v1h-1z"/><path fill="#FCC6A1" d="M25 24h1v1h-1zM26 24h1v1h-1zM27 24h1v1h-1zM28 24h1v1h-1zM29 24h1v1h-1zM30 24h1v1h-1zM31 24h1v1h-1zM32 24h1v1h-1zM33 24h1v1h-1zM34 24h1v1h-1zM35 24h1v1h-1zM36 24h1v1h-1zM37 24h1v1h-1zM38 24h1v1h-1zM39 24h1v1h-1zM40 24h1v1h-1zM41 24h1v1h-1z"/><path fill="#E5E5E5" d="M42 24h1v1h-1z"/><path fill="#EBEBEB" d="M43 24h1v1h-1z"/><path fill="#E5E5E5" d="M44 24h1v1h-1zM45 24h1v1h-1z"/><path fill="#FCC6A1" d="M46 24h1v1h-1zM47 24h1v1h-1zM48 24h1v1h-1zM49 24h1v1h-1zM50 24h1v1h-1zM51 24h1v1h-1zM52 24h1v1h-1z"/><path fill="#A2C732" d="M53 24h1v1h-1z"/><path fill="#80BC40" d="M54 24h1v1h-1z"/><path fill="#2E222F" d="M55 24h1v1h-1zM56 24h1v1h-1zM1 25h1v1H1zM2 25h1v1H2z"/><path fill="#FCC6A1" d="M3 25h1v1H3z"/><path fill="#E3B291" d="M4 25h1v1H4zM5 25h1v1H5zM6 25h1v1H6zM7 25h1v1H7z"/><path fill="#D0D0D0" d="M8 25h1v1H8z"/><path fill="#DDD" d="M9 25h1v1H9zM10 25h1v1h-1z"/><path fill="#FCC6A1" d="M11 25h1v1h-1zM12 25h1v1h-1zM13 25h1v1h-1zM14 25h1v1h-1zM15 25h1v1h-1zM16 25h1v1h-1zM17 25h1v1h-1zM18 25h1v1h-1zM19 25h1v1h-1z"/><path fill="#E1B190" d="M20 25h1v1h-1zM21 25h1v1h-1zM22 25h1v1h-1zM23 25h1v1h-1zM24 25h1v1h-1zM25 25h1v1h-1z"/><path fill="#FCC6A1" d="M26 25h1v1h-1zM27 25h1v1h-1zM28 25h1v1h-1zM29 25h1v1h-1zM30 25h1v1h-1zM31 25h1v1h-1zM32 25h1v1h-1zM33 25h1v1h-1zM34 25h1v1h-1zM35 25h1v1h-1zM36 25h1v1h-1zM37 25h1v1h-1zM38 25h1v1h-1zM39 25h1v1h-1zM40 25h1v1h-1z"/><path fill="#E9B795" d="M41 25h1v1h-1zM42 25h1v1h-1zM43 25h1v1h-1zM44 25h1v1h-1zM45 25h1v1h-1zM46 25h1v1h-1z"/><path fill="#FCC6A1" d="M47 25h1v1h-1zM48 25h1v1h-1zM49 25h1v1h-1zM50 25h1v1h-1zM51 25h1v1h-1zM52 25h1v1h-1z"/><path fill="#80BC40" d="M53 25h1v1h-1z"/><path fill="#A2C732" d="M54 25h1v1h-1z"/><path fill="#2E222F" d="M55 25h1v1h-1zM56 25h1v1h-1zM1 26h1v1H1zM2 26h1v1H2z"/><path fill="#FCC6A1" d="M3 26h1v1H3z"/><path fill="#E3B291" d="M4 26h1v1H4zM5 26h1v1H5z"/><path fill="#FCC6A1" d="M6 26h1v1H6zM7 26h1v1H7z"/><path fill="#DDD" d="M8 26h1v1H8zM9 26h1v1H9zM10 26h1v1h-1z"/><path fill="#FCC6A1" d="M11 26h1v1h-1zM12 26h1v1h-1zM13 26h1v1h-1zM14 26h1v1h-1zM15 26h1v1h-1zM16 26h1v1h-1zM17 26h1v1h-1zM18 26h1v1h-1zM19 26h1v1h-1zM20 26h1v1h-1zM21 26h1v1h-1zM22 26h1v1h-1zM23 26h1v1h-1zM24 26h1v1h-1zM25 26h1v1h-1zM26 26h1v1h-1zM27 26h1v1h-1zM28 26h1v1h-1zM29 26h1v1h-1zM30 26h1v1h-1zM31 26h1v1h-1zM32 26h1v1h-1zM33 26h1v1h-1zM34 26h1v1h-1zM35 26h1v1h-1zM36 26h1v1h-1zM37 26h1v1h-1zM38 26h1v1h-1zM39 26h1v1h-1zM40 26h1v1h-1zM41 26h1v1h-1zM42 26h1v1h-1zM43 26h1v1h-1zM44 26h1v1h-1zM45 26h1v1h-1zM46 26h1v1h-1zM47 26h1v1h-1zM48 26h1v1h-1zM49 26h1v1h-1zM50 26h1v1h-1zM51 26h1v1h-1zM52 26h1v1h-1z"/><path fill="#A2C732" d="M53 26h1v1h-1zM54 26h1v1h-1z"/><path fill="#2E222F" d="M55 26h1v1h-1zM56 26h1v1h-1zM1 27h1v1H1zM2 27h1v1H2z"/><path fill="#FCC6A1" d="M3 27h1v1H3zM4 27h1v1H4zM5 27h1v1H5zM6 27h1v1H6zM7 27h1v1H7z"/><path fill="#E1B190" d="M8 27h1v1H8zM9 27h1v1H9zM10 27h1v1h-1z"/><path fill="#FCC6A1" d="M11 27h1v1h-1zM12 27h1v1h-1zM13 27h1v1h-1zM14 27h1v1h-1zM15 27h1v1h-1zM16 27h1v1h-1zM17 27h1v1h-1zM18 27h1v1h-1z"/><path fill="#80BC40" d="M19 27h1v1h-1zM20 27h1v1h-1z"/><path fill="#A2C732" d="M21 27h1v1h-1zM22 27h1v1h-1z"/><path fill="#80BC40" d="M23 27h1v1h-1z"/><path fill="#12750D" d="M24 27h1v1h-1zM25 27h1v1h-1zM26 27h1v1h-1z"/><path fill="#A2C732" d="M27 27h1v1h-1zM28 27h1v1h-1z"/><path fill="#80BC40" d="M29 27h1v1h-1z"/><path fill="#FCC6A1" d="M30 27h1v1h-1zM31 27h1v1h-1zM32 27h1v1h-1zM33 27h1v1h-1zM34 27h1v1h-1zM35 27h1v1h-1zM36 27h1v1h-1zM37 27h1v1h-1zM38 27h1v1h-1zM39 27h1v1h-1zM40 27h1v1h-1zM41 27h1v1h-1zM42 27h1v1h-1zM43 27h1v1h-1zM44 27h1v1h-1zM45 27h1v1h-1zM46 27h1v1h-1zM47 27h1v1h-1zM48 27h1v1h-1zM49 27h1v1h-1zM50 27h1v1h-1zM51 27h1v1h-1zM52 27h1v1h-1z"/><path fill="#80BC40" d="M53 27h1v1h-1z"/><path fill="#A2C732" d="M54 27h1v1h-1z"/><path fill="#2E222F" d="M55 27h1v1h-1zM56 27h1v1h-1z"/><path fill="#BC5F38" d="M57 27h1v1h-1zM59 27h1v1h-1z"/><path fill="#2E222F" d="M1 28h1v1H1zM2 28h1v1H2z"/><path fill="#FCC6A1" d="M3 28h1v1H3zM4 28h1v1H4zM5 28h1v1H5zM6 28h1v1H6zM7 28h1v1H7zM8 28h1v1H8zM9 28h1v1H9zM10 28h1v1h-1zM11 28h1v1h-1zM12 28h1v1h-1zM13 28h1v1h-1zM14 28h1v1h-1zM15 28h1v1h-1zM16 28h1v1h-1z"/><path fill="#80BC40" d="M17 28h1v1h-1z"/><path fill="#12750D" d="M18 28h1v1h-1z"/><path fill="#80BC40" d="M19 28h1v1h-1zM20 28h1v1h-1z"/><path fill="#A2C732" d="M21 28h1v1h-1zM22 28h1v1h-1zM23 28h1v1h-1z"/><path fill="#80BC40" d="M24 28h1v1h-1z"/><path fill="#12750D" d="M25 28h1v1h-1zM26 28h1v1h-1z"/><path fill="#80BC40" d="M27 28h1v1h-1z"/><path fill="#A2C732" d="M28 28h1v1h-1zM29 28h1v1h-1z"/><path fill="#80BC40" d="M30 28h1v1h-1zM31 28h1v1h-1zM32 28h1v1h-1z"/><path fill="#FCC6A1" d="M33 28h1v1h-1zM34 28h1v1h-1zM35 28h1v1h-1zM36 28h1v1h-1zM37 28h1v1h-1zM38 28h1v1h-1zM39 28h1v1h-1zM40 28h1v1h-1zM41 28h1v1h-1zM42 28h1v1h-1zM43 28h1v1h-1zM44 28h1v1h-1zM45 28h1v1h-1zM46 28h1v1h-1zM47 28h1v1h-1zM48 28h1v1h-1zM49 28h1v1h-1zM50 28h1v1h-1zM51 28h1v1h-1zM52 28h1v1h-1z"/><path fill="#12750D" d="M53 28h1v1h-1z"/><path fill="#80BC40" d="M54 28h1v1h-1z"/><path fill="#2E222F" d="M55 28h1v1h-1zM56 28h1v1h-1z"/><path fill="#BC5F38" d="M57 28h1v1h-1zM58 28h1v1h-1zM59 28h1v1h-1z"/><path fill="#2E222F" d="M1 29h1v1H1zM2 29h1v1H2z"/><path fill="#FCC6A1" d="M3 29h1v1H3zM4 29h1v1H4zM5 29h1v1H5zM6 29h1v1H6zM7 29h1v1H7zM8 29h1v1H8zM9 29h1v1H9zM10 29h1v1h-1zM11 29h1v1h-1zM12 29h1v1h-1zM13 29h1v1h-1zM14 29h1v1h-1zM15 29h1v1h-1zM16 29h1v1h-1z"/><path fill="#12750D" d="M17 29h1v1h-1zM18 29h1v1h-1z"/><path fill="#2E222F" d="M19 29h1v1h-1zM20 29h1v1h-1zM21 29h1v1h-1zM22 29h1v1h-1zM23 29h1v1h-1zM24 29h1v1h-1zM25 29h1v1h-1zM26 29h1v1h-1zM27 29h1v1h-1zM28 29h1v1h-1zM29 29h1v1h-1z"/><path fill="#80BC40" d="M30 29h1v1h-1zM31 29h1v1h-1z"/><path fill="#A2C732" d="M32 29h1v1h-1z"/><path fill="#80BC40" d="M33 29h1v1h-1zM34 29h1v1h-1z"/><path fill="#FCC6A1" d="M35 29h1v1h-1zM36 29h1v1h-1zM37 29h1v1h-1zM38 29h1v1h-1zM39 29h1v1h-1zM40 29h1v1h-1zM41 29h1v1h-1zM42 29h1v1h-1zM43 29h1v1h-1zM44 29h1v1h-1zM45 29h1v1h-1zM46 29h1v1h-1zM47 29h1v1h-1zM48 29h1v1h-1zM49 29h1v1h-1zM50 29h1v1h-1zM51 29h1v1h-1z"/><path fill="#80BC40" d="M52 29h1v1h-1z"/><path fill="#12750D" d="M53 29h1v1h-1zM54 29h1v1h-1z"/><path fill="#2E222F" d="M55 29h1v1h-1zM56 29h1v1h-1z"/><path fill="#BC5F38" d="M57 29h1v1h-1zM59 29h1v1h-1z"/><path fill="#2E222F" d="M1 30h1v1H1zM2 30h1v1H2z"/><path fill="#FCC6A1" d="M3 30h1v1H3zM4 30h1v1H4zM5 30h1v1H5zM6 30h1v1H6zM7 30h1v1H7zM8 30h1v1H8zM9 30h1v1H9zM10 30h1v1h-1zM11 30h1v1h-1zM12 30h1v1h-1zM13 30h1v1h-1zM14 30h1v1h-1z"/><path fill="#2E222F" d="M15 30h1v1h-1zM16 30h1v1h-1zM17 30h1v1h-1zM18 30h1v1h-1zM19 30h1v1h-1zM20 30h1v1h-1zM21 30h1v1h-1zM22 30h1v1h-1zM23 30h1v1h-1zM24 30h1v1h-1zM25 30h1v1h-1zM26 30h1v1h-1zM27 30h1v1h-1zM28 30h1v1h-1zM29 30h1v1h-1zM30 30h1v1h-1zM31 30h1v1h-1zM32 30h1v1h-1z"/><path fill="#80BC40" d="M33 30h1v1h-1z"/><path fill="#12750D" d="M34 30h1v1h-1zM35 30h1v1h-1z"/><path fill="#80BC40" d="M36 30h1v1h-1z"/><path fill="#A2C732" d="M37 30h1v1h-1z"/><path fill="#80BC40" d="M38 30h1v1h-1z"/><path fill="#A2C732" d="M39 30h1v1h-1z"/><path fill="#80BC40" d="M40 30h1v1h-1zM41 30h1v1h-1zM42 30h1v1h-1z"/><path fill="#A2C732" d="M43 30h1v1h-1zM44 30h1v1h-1z"/><path fill="#80BC40" d="M45 30h1v1h-1z"/><path fill="#12750D" d="M46 30h1v1h-1zM47 30h1v1h-1z"/><path fill="#80BC40" d="M48 30h1v1h-1z"/><path fill="#A2C732" d="M49 30h1v1h-1z"/><path fill="#80BC40" d="M50 30h1v1h-1zM51 30h1v1h-1zM52 30h1v1h-1z"/><path fill="#A2C732" d="M53 30h1v1h-1z"/><path fill="#12750D" d="M54 30h1v1h-1z"/><path fill="#2E222F" d="M55 30h1v1h-1zM56 30h1v1h-1zM57 30h1v1h-1zM58 30h1v1h-1zM59 30h1v1h-1zM1 31h1v1H1zM2 31h1v1H2z"/><path fill="#FCC6A1" d="M3 31h1v1H3zM4 31h1v1H4zM5 31h1v1H5zM6 31h1v1H6zM7 31h1v1H7zM8 31h1v1H8zM9 31h1v1H9zM10 31h1v1h-1zM11 31h1v1h-1zM12 31h1v1h-1z"/><path fill="#2E222F" d="M13 31h1v1h-1zM14 31h1v1h-1zM15 31h1v1h-1zM16 31h1v1h-1zM17 31h1v1h-1zM18 31h1v1h-1zM19 31h1v1h-1zM20 31h1v1h-1z"/><path fill="#E8B694" d="M21 31h1v1h-1zM22 31h1v1h-1zM23 31h1v1h-1zM24 31h1v1h-1zM25 31h1v1h-1zM26 31h1v1h-1zM27 31h1v1h-1z"/><path fill="#2E222F" d="M28 31h1v1h-1zM29 31h1v1h-1zM30 31h1v1h-1zM31 31h1v1h-1zM32 31h1v1h-1zM33 31h1v1h-1z"/><path fill="#A2C732" d="M34 31h1v1h-1z"/><path fill="#12750D" d="M35 31h1v1h-1zM36 31h1v1h-1z"/><path fill="#80BC40" d="M37 31h1v1h-1zM38 31h1v1h-1zM39 31h1v1h-1z"/><path fill="#A2C732" d="M40 31h1v1h-1zM41 31h1v1h-1z"/><path fill="#80BC40" d="M42 31h1v1h-1zM43 31h1v1h-1z"/><path fill="#A2C732" d="M44 31h1v1h-1z"/><path fill="#80BC40" d="M45 31h1v1h-1z"/><path fill="#12750D" d="M46 31h1v1h-1z"/><path fill="#80BC40" d="M47 31h1v1h-1z"/><path fill="#A2C732" d="M48 31h1v1h-1zM49 31h1v1h-1z"/><path fill="#80BC40" d="M50 31h1v1h-1zM51 31h1v1h-1z"/><path fill="#A2C732" d="M52 31h1v1h-1zM53 31h1v1h-1z"/><path fill="#80BC40" d="M54 31h1v1h-1z"/><path fill="#2E222F" d="M55 31h1v1h-1zM56 31h1v1h-1zM57 31h1v1h-1zM58 31h1v1h-1zM59 31h1v1h-1zM1 32h1v1H1zM2 32h1v1H2z"/><path fill="#FCC6A1" d="M3 32h1v1H3zM4 32h1v1H4zM5 32h1v1H5zM6 32h1v1H6zM7 32h1v1H7zM8 32h1v1H8zM9 32h1v1H9zM10 32h1v1h-1zM11 32h1v1h-1z"/><path fill="#2E222F" d="M12 32h1v1h-1zM13 32h1v1h-1zM14 32h1v1h-1zM15 32h1v1h-1zM16 32h1v1h-1z"/><path fill="#EEBB98" d="M17 32h1v1h-1z"/><path fill="#E8B694" d="M18 32h1v1h-1zM19 32h1v1h-1zM20 32h1v1h-1zM21 32h1v1h-1z"/><path fill="#EEBB98" d="M22 32h1v1h-1zM23 32h1v1h-1zM24 32h1v1h-1zM25 32h1v1h-1z"/><path fill="#E8B694" d="M26 32h1v1h-1zM27 32h1v1h-1zM28 32h1v1h-1zM29 32h1v1h-1zM30 32h1v1h-1zM31 32h1v1h-1z"/><path fill="#2E222F" d="M32 32h1v1h-1z"/><path fill="#80BC40" d="M33 32h1v1h-1z"/><path fill="#A2C732" d="M34 32h1v1h-1z"/><path fill="#2E222F" d="M35 32h1v1h-1zM36 32h1v1h-1zM37 32h1v1h-1zM38 32h1v1h-1zM39 32h1v1h-1zM40 32h1v1h-1zM41 32h1v1h-1zM42 32h1v1h-1zM43 32h1v1h-1zM44 32h1v1h-1zM45 32h1v1h-1zM46 32h1v1h-1zM47 32h1v1h-1zM48 32h1v1h-1zM49 32h1v1h-1zM50 32h1v1h-1zM51 32h1v1h-1zM52 32h1v1h-1zM53 32h1v1h-1zM54 32h1v1h-1zM55 32h1v1h-1zM56 32h1v1h-1zM57 32h1v1h-1zM58 32h1v1h-1zM1 33h1v1H1zM2 33h1v1H2z"/><path fill="#FCC6A1" d="M3 33h1v1H3zM4 33h1v1H4zM5 33h1v1H5zM6 33h1v1H6zM7 33h1v1H7z"/><path fill="#80BC40" d="M8 33h1v1H8z"/><path fill="#A2C732" d="M9 33h1v1H9z"/><path fill="#80BC40" d="M10 33h1v1h-1zM11 33h1v1h-1zM12 33h1v1h-1z"/><path fill="#12750D" d="M13 33h1v1h-1z"/><path fill="#80BC40" d="M14 33h1v1h-1z"/><path fill="#A2C732" d="M15 33h1v1h-1zM16 33h1v1h-1z"/><path fill="#80BC40" d="M17 33h1v1h-1zM18 33h1v1h-1z"/><path fill="#EEBB98" d="M19 33h1v1h-1zM20 33h1v1h-1z"/><path fill="#FCC6A1" d="M21 33h1v1h-1zM22 33h1v1h-1zM23 33h1v1h-1zM24 33h1v1h-1zM25 33h1v1h-1zM26 33h1v1h-1zM27 33h1v1h-1z"/><path fill="#EEBB98" d="M28 33h1v1h-1zM29 33h1v1h-1zM30 33h1v1h-1zM31 33h1v1h-1z"/><path fill="#80BC40" d="M32 33h1v1h-1zM33 33h1v1h-1z"/><path fill="#2E222F" d="M34 33h1v1h-1zM35 33h1v1h-1zM36 33h1v1h-1zM37 33h1v1h-1zM38 33h1v1h-1zM39 33h1v1h-1zM40 33h1v1h-1zM41 33h1v1h-1zM42 33h1v1h-1zM43 33h1v1h-1zM44 33h1v1h-1zM45 33h1v1h-1zM46 33h1v1h-1zM47 33h1v1h-1zM48 33h1v1h-1zM49 33h1v1h-1zM50 33h1v1h-1zM51 33h1v1h-1zM52 33h1v1h-1zM53 33h1v1h-1zM54 33h1v1h-1zM55 33h1v1h-1zM56 33h1v1h-1zM57 33h1v1h-1zM1 34h1v1H1zM2 34h1v1H2z"/><path fill="#FCC6A1" d="M3 34h1v1H3zM4 34h1v1H4zM5 34h1v1H5zM6 34h1v1H6z"/><path fill="#80BC40" d="M7 34h1v1H7zM8 34h1v1H8zM9 34h1v1H9z"/><path fill="#12750D" d="M10 34h1v1h-1z"/><path fill="#80BC40" d="M11 34h1v1h-1z"/><path fill="#A2C732" d="M12 34h1v1h-1z"/><path fill="#12750D" d="M13 34h1v1h-1zM14 34h1v1h-1z"/><path fill="#80BC40" d="M15 34h1v1h-1zM16 34h1v1h-1zM17 34h1v1h-1zM18 34h1v1h-1zM19 34h1v1h-1z"/><path fill="#A2C732" d="M20 34h1v1h-1z"/><path fill="#FCC6A1" d="M21 34h1v1h-1zM22 34h1v1h-1zM23 34h1v1h-1zM24 34h1v1h-1zM25 34h1v1h-1zM26 34h1v1h-1zM27 34h1v1h-1zM28 34h1v1h-1zM29 34h1v1h-1zM30 34h1v1h-1z"/><path fill="#A2C732" d="M31 34h1v1h-1z"/><path fill="#80BC40" d="M32 34h1v1h-1z"/><path fill="#EEBB98" d="M33 34h1v1h-1z"/><path fill="#2E222F" d="M34 34h1v1h-1zM35 34h1v1h-1z"/><path fill="#E3B291" d="M36 34h1v1h-1zM37 34h1v1h-1zM38 34h1v1h-1zM39 34h1v1h-1zM40 34h1v1h-1z"/><path fill="#FCC6A1" d="M41 34h1v1h-1zM42 34h1v1h-1zM43 34h1v1h-1zM44 34h1v1h-1zM45 34h1v1h-1z"/><path fill="#E3B291" d="M46 34h1v1h-1zM47 34h1v1h-1zM48 34h1v1h-1zM49 34h1v1h-1zM50 34h1v1h-1zM51 34h1v1h-1zM52 34h1v1h-1zM53 34h1v1h-1zM54 34h1v1h-1z"/><path fill="#2E222F" d="M55 34h1v1h-1zM56 34h1v1h-1zM1 35h1v1H1zM2 35h1v1H2z"/><path fill="#FCC6A1" d="M3 35h1v1H3zM4 35h1v1H4zM5 35h1v1H5zM6 35h1v1H6z"/><path fill="#2E222F" d="M7 35h1v1H7zM8 35h1v1H8zM9 35h1v1H9zM10 35h1v1h-1zM11 35h1v1h-1zM12 35h1v1h-1zM13 35h1v1h-1zM14 35h1v1h-1zM15 35h1v1h-1zM16 35h1v1h-1zM17 35h1v1h-1zM18 35h1v1h-1z"/><path fill="#80BC40" d="M19 35h1v1h-1z"/><path fill="#A2C732" d="M20 35h1v1h-1z"/><path fill="#80BC40" d="M21 35h1v1h-1zM22 35h1v1h-1z"/><path fill="#FCC6A1" d="M23 35h1v1h-1zM24 35h1v1h-1zM25 35h1v1h-1zM26 35h1v1h-1zM27 35h1v1h-1zM28 35h1v1h-1zM29 35h1v1h-1z"/><path fill="#A2C732" d="M30 35h1v1h-1z"/><path fill="#80BC40" d="M31 35h1v1h-1z"/><path fill="#EEBB98" d="M32 35h1v1h-1zM33 35h1v1h-1z"/><path fill="#2E222F" d="M34 35h1v1h-1zM35 35h1v1h-1z"/><path fill="#E3B291" d="M36 35h1v1h-1zM37 35h1v1h-1zM38 35h1v1h-1zM39 35h1v1h-1z"/><path fill="#FCC6A1" d="M40 35h1v1h-1zM41 35h1v1h-1zM42 35h1v1h-1zM43 35h1v1h-1zM44 35h1v1h-1zM45 35h1v1h-1zM46 35h1v1h-1zM47 35h1v1h-1zM48 35h1v1h-1zM49 35h1v1h-1z"/><path fill="#E3B291" d="M50 35h1v1h-1zM51 35h1v1h-1zM52 35h1v1h-1zM53 35h1v1h-1zM54 35h1v1h-1z"/><path fill="#2E222F" d="M55 35h1v1h-1zM56 35h1v1h-1zM1 36h1v1H1zM2 36h1v1H2z"/><path fill="#FCC6A1" d="M3 36h1v1H3zM4 36h1v1H4zM5 36h1v1H5z"/><path fill="#2E222F" d="M6 36h1v1H6zM7 36h1v1H7zM8 36h1v1H8zM9 36h1v1H9zM10 36h1v1h-1zM11 36h1v1h-1zM12 36h1v1h-1zM13 36h1v1h-1z"/><path fill="#E8B694" d="M14 36h1v1h-1z"/><path fill="#E6B493" d="M15 36h1v1h-1z"/><path fill="#E8B694" d="M16 36h1v1h-1zM17 36h1v1h-1z"/><path fill="#EEBB98" d="M18 36h1v1h-1z"/><path fill="#2E222F" d="M19 36h1v1h-1zM20 36h1v1h-1z"/><path fill="#A2C732" d="M21 36h1v1h-1z"/><path fill="#80BC40" d="M22 36h1v1h-1z"/><path fill="#12750D" d="M23 36h1v1h-1z"/><path fill="#80BC40" d="M24 36h1v1h-1z"/><path fill="#FCC6A1" d="M25 36h1v1h-1zM26 36h1v1h-1zM27 36h1v1h-1zM28 36h1v1h-1zM29 36h1v1h-1z"/><path fill="#12750D" d="M30 36h1v1h-1zM31 36h1v1h-1z"/><path fill="#EEBB98" d="M32 36h1v1h-1z"/><path fill="#FCC6A1" d="M33 36h1v1h-1z"/><path fill="#2E222F" d="M34 36h1v1h-1zM35 36h1v1h-1z"/><path fill="#E3B291" d="M36 36h1v1h-1zM37 36h1v1h-1z"/><path fill="#FCC6A1" d="M38 36h1v1h-1zM39 36h1v1h-1zM40 36h1v1h-1zM41 36h1v1h-1zM42 36h1v1h-1zM43 36h1v1h-1zM44 36h1v1h-1zM45 36h1v1h-1zM46 36h1v1h-1zM47 36h1v1h-1zM48 36h1v1h-1zM49 36h1v1h-1zM50 36h1v1h-1zM51 36h1v1h-1z"/><path fill="#E3B291" d="M52 36h1v1h-1zM53 36h1v1h-1zM54 36h1v1h-1z"/><path fill="#2E222F" d="M55 36h1v1h-1zM56 36h1v1h-1zM1 37h1v1H1zM2 37h1v1H2z"/><path fill="#FCC6A1" d="M3 37h1v1H3zM4 37h1v1H4zM5 37h1v1H5z"/><path fill="#2E222F" d="M6 37h1v1H6zM7 37h1v1H7zM8 37h1v1H8z"/><path fill="#934035" d="M9 37h1v1H9zM10 37h1v1h-1z"/><path fill="#2E222F" d="M11 37h1v1h-1zM12 37h1v1h-1zM13 37h1v1h-1z"/><path fill="#E6B493" d="M14 37h1v1h-1zM15 37h1v1h-1zM16 37h1v1h-1zM17 37h1v1h-1z"/><path fill="#E8B694" d="M18 37h1v1h-1zM19 37h1v1h-1z"/><path fill="#EEBB98" d="M20 37h1v1h-1z"/><path fill="#2E222F" d="M21 37h1v1h-1zM22 37h1v1h-1z"/><path fill="#12750D" d="M23 37h1v1h-1zM24 37h1v1h-1z"/><path fill="#80BC40" d="M25 37h1v1h-1z"/><path fill="#FCC6A1" d="M26 37h1v1h-1zM27 37h1v1h-1zM28 37h1v1h-1z"/><path fill="#A2C732" d="M29 37h1v1h-1z"/><path fill="#80BC40" d="M30 37h1v1h-1z"/><path fill="#EEBB98" d="M31 37h1v1h-1zM32 37h1v1h-1z"/><path fill="#FCC6A1" d="M33 37h1v1h-1z"/><path fill="#2E222F" d="M34 37h1v1h-1zM35 37h1v1h-1z"/><path fill="#E3B291" d="M36 37h1v1h-1z"/><path fill="#FCC6A1" d="M37 37h1v1h-1zM38 37h1v1h-1z"/><path fill="#E9B795" d="M39 37h1v1h-1zM40 37h1v1h-1zM41 37h1v1h-1zM42 37h1v1h-1zM43 37h1v1h-1zM44 37h1v1h-1zM45 37h1v1h-1zM46 37h1v1h-1zM47 37h1v1h-1zM48 37h1v1h-1zM49 37h1v1h-1zM50 37h1v1h-1zM51 37h1v1h-1z"/><path fill="#FCC6A1" d="M52 37h1v1h-1z"/><path fill="#E3B291" d="M53 37h1v1h-1zM54 37h1v1h-1z"/><path fill="#2E222F" d="M55 37h1v1h-1zM56 37h1v1h-1zM1 38h1v1H1zM2 38h1v1H2z"/><path fill="#FCC6A1" d="M3 38h1v1H3zM4 38h1v1H4zM5 38h1v1H5z"/><path fill="#2E222F" d="M6 38h1v1H6zM7 38h1v1H7z"/><path fill="#9E4539" d="M8 38h1v1H8zM9 38h1v1H9z"/><path fill="#934035" d="M10 38h1v1h-1zM11 38h1v1h-1z"/><path fill="#2E222F" d="M12 38h1v1h-1zM13 38h1v1h-1z"/><path fill="#E8B694" d="M14 38h1v1h-1z"/><path fill="#E6B493" d="M15 38h1v1h-1z"/><path fill="#E8B694" d="M16 38h1v1h-1z"/><path fill="#EEBB98" d="M17 38h1v1h-1zM18 38h1v1h-1z"/><path fill="#E8B694" d="M19 38h1v1h-1z"/><path fill="#E6B493" d="M20 38h1v1h-1z"/><path fill="#E8B694" d="M21 38h1v1h-1zM22 38h1v1h-1z"/><path fill="#2E222F" d="M23 38h1v1h-1z"/><path fill="#A2C732" d="M24 38h1v1h-1zM25 38h1v1h-1z"/><path fill="#80BC40" d="M26 38h1v1h-1z"/><path fill="#FCC6A1" d="M27 38h1v1h-1zM28 38h1v1h-1z"/><path fill="#A2C732" d="M29 38h1v1h-1z"/><path fill="#80BC40" d="M30 38h1v1h-1z"/><path fill="#EEBB98" d="M31 38h1v1h-1z"/><path fill="#FCC6A1" d="M32 38h1v1h-1zM33 38h1v1h-1z"/><path fill="#2E222F" d="M34 38h1v1h-1zM35 38h1v1h-1z"/><path fill="#FCC6A1" d="M36 38h1v1h-1zM37 38h1v1h-1zM38 38h1v1h-1z"/><path fill="#AFC9D2" d="M39 38h1v1h-1zM40 38h1v1h-1zM41 38h1v1h-1z"/><path fill="#FCC6A1" d="M42 38h1v1h-1zM43 38h1v1h-1z"/><path fill="#AFC9D2" d="M44 38h1v1h-1zM45 38h1v1h-1zM46 38h1v1h-1z"/><path fill="#FCC6A1" d="M47 38h1v1h-1zM48 38h1v1h-1z"/><path fill="#AFC9D2" d="M49 38h1v1h-1zM50 38h1v1h-1zM51 38h1v1h-1z"/><path fill="#FCC6A1" d="M52 38h1v1h-1zM53 38h1v1h-1z"/><path fill="#E3B291" d="M54 38h1v1h-1z"/><path fill="#2E222F" d="M55 38h1v1h-1zM56 38h1v1h-1zM1 39h1v1H1zM2 39h1v1H2z"/><path fill="#FCC6A1" d="M3 39h1v1H3zM4 39h1v1H4zM5 39h1v1H5z"/><path fill="#2E222F" d="M6 39h1v1H6zM7 39h1v1H7z"/><path fill="#9E4539" d="M8 39h1v1H8zM9 39h1v1H9z"/><path fill="#934035" d="M10 39h1v1h-1zM11 39h1v1h-1z"/><path fill="#2E222F" d="M12 39h1v1h-1zM13 39h1v1h-1z"/><path fill="#EEBB98" d="M14 39h1v1h-1z"/><path fill="#E8B694" d="M15 39h1v1h-1z"/><path fill="#2E222F" d="M16 39h1v1h-1zM17 39h1v1h-1zM18 39h1v1h-1z"/><path fill="#FCC6A1" d="M19 39h1v1h-1zM20 39h1v1h-1z"/><path fill="#EEBB98" d="M21 39h1v1h-1z"/><path fill="#E8B694" d="M22 39h1v1h-1zM23 39h1v1h-1z"/><path fill="#2E222F" d="M24 39h1v1h-1z"/><path fill="#A2C732" d="M25 39h1v1h-1z"/><path fill="#80BC40" d="M26 39h1v1h-1z"/><path fill="#FCC6A1" d="M27 39h1v1h-1z"/><path fill="#80BC40" d="M28 39h1v1h-1zM29 39h1v1h-1z"/><path fill="#EEBB98" d="M30 39h1v1h-1zM31 39h1v1h-1z"/><path fill="#FCC6A1" d="M32 39h1v1h-1zM33 39h1v1h-1z"/><path fill="#2E222F" d="M34 39h1v1h-1zM35 39h1v1h-1z"/><path fill="#FCC6A1" d="M36 39h1v1h-1zM37 39h1v1h-1zM38 39h1v1h-1z"/><path fill="#AFC9D2" d="M39 39h1v1h-1zM40 39h1v1h-1zM41 39h1v1h-1z"/><path fill="#FCC6A1" d="M42 39h1v1h-1zM43 39h1v1h-1z"/><path fill="#AFC9D2" d="M44 39h1v1h-1zM45 39h1v1h-1zM46 39h1v1h-1z"/><path fill="#FCC6A1" d="M47 39h1v1h-1zM48 39h1v1h-1z"/><path fill="#AFC9D2" d="M49 39h1v1h-1zM50 39h1v1h-1zM51 39h1v1h-1z"/><path fill="#FCC6A1" d="M52 39h1v1h-1zM53 39h1v1h-1zM54 39h1v1h-1z"/><path fill="#2E222F" d="M55 39h1v1h-1zM56 39h1v1h-1zM1 40h1v1H1zM2 40h1v1H2z"/><path fill="#FCC6A1" d="M3 40h1v1H3zM4 40h1v1H4zM5 40h1v1H5z"/><path fill="#2E222F" d="M6 40h1v1H6zM7 40h1v1H7z"/><path fill="#9E4539" d="M8 40h1v1H8zM9 40h1v1H9zM10 40h1v1h-1z"/><path fill="#934035" d="M11 40h1v1h-1z"/><path fill="#2E222F" d="M12 40h1v1h-1zM13 40h1v1h-1z"/><path fill="#FCC6A1" d="M14 40h1v1h-1z"/><path fill="#E8B694" d="M15 40h1v1h-1z"/><path fill="#2E222F" d="M16 40h1v1h-1z"/><path fill="#934035" d="M17 40h1v1h-1zM18 40h1v1h-1z"/><path fill="#2E222F" d="M19 40h1v1h-1zM20 40h1v1h-1z"/><path fill="#FCC6A1" d="M21 40h1v1h-1z"/><path fill="#EEBB98" d="M22 40h1v1h-1zM23 40h1v1h-1zM24 40h1v1h-1z"/><path fill="#2E222F" d="M25 40h1v1h-1z"/><path fill="#80BC40" d="M26 40h1v1h-1zM27 40h1v1h-1z"/><path fill="#12750D" d="M28 40h1v1h-1z"/><path fill="#80BC40" d="M29 40h1v1h-1z"/><path fill="#EEBB98" d="M30 40h1v1h-1z"/><path fill="#FCC6A1" d="M31 40h1v1h-1zM32 40h1v1h-1zM33 40h1v1h-1z"/><path fill="#2E222F" d="M34 40h1v1h-1zM35 40h1v1h-1z"/><path fill="#FCC6A1" d="M36 40h1v1h-1zM37 40h1v1h-1zM38 40h1v1h-1z"/><path fill="#AFC9D2" d="M39 40h1v1h-1zM40 40h1v1h-1zM41 40h1v1h-1z"/><path fill="#80BC40" d="M42 40h1v1h-1z"/><path fill="#A2C732" d="M43 40h1v1h-1z"/><path fill="#AFC9D2" d="M44 40h1v1h-1zM45 40h1v1h-1zM46 40h1v1h-1z"/><path fill="#FCC6A1" d="M47 40h1v1h-1z"/><path fill="#80BC40" d="M48 40h1v1h-1z"/><path fill="#AFC9D2" d="M49 40h1v1h-1zM50 40h1v1h-1zM51 40h1v1h-1z"/><path fill="#FCC6A1" d="M52 40h1v1h-1zM53 40h1v1h-1zM54 40h1v1h-1z"/><path fill="#2E222F" d="M55 40h1v1h-1zM56 40h1v1h-1zM1 41h1v1H1zM2 41h1v1H2z"/><path fill="#FCC6A1" d="M3 41h1v1H3zM4 41h1v1H4zM5 41h1v1H5z"/><path fill="#2E222F" d="M6 41h1v1H6zM7 41h1v1H7z"/><path fill="#9E4539" d="M8 41h1v1H8zM9 41h1v1H9zM10 41h1v1h-1z"/><path fill="#934035" d="M11 41h1v1h-1z"/><path fill="#2E222F" d="M12 41h1v1h-1zM13 41h1v1h-1z"/><path fill="#FCC6A1" d="M14 41h1v1h-1zM15 41h1v1h-1z"/><path fill="#2E222F" d="M16 41h1v1h-1z"/><path fill="#9E4539" d="M17 41h1v1h-1z"/><path fill="#934035" d="M18 41h1v1h-1zM19 41h1v1h-1zM20 41h1v1h-1z"/><path fill="#2E222F" d="M21 41h1v1h-1z"/><path fill="#FCC6A1" d="M22 41h1v1h-1zM23 41h1v1h-1z"/><path fill="#EEBB98" d="M24 41h1v1h-1z"/><path fill="#2E222F" d="M25 41h1v1h-1z"/><path fill="#A2C732" d="M26 41h1v1h-1z"/><path fill="#12750D" d="M27 41h1v1h-1zM28 41h1v1h-1z"/><path fill="#EEBB98" d="M29 41h1v1h-1zM30 41h1v1h-1z"/><path fill="#FCC6A1" d="M31 41h1v1h-1zM32 41h1v1h-1zM33 41h1v1h-1z"/><path fill="#2E222F" d="M34 41h1v1h-1zM35 41h1v1h-1z"/><path fill="#FCC6A1" d="M36 41h1v1h-1zM37 41h1v1h-1zM38 41h1v1h-1z"/><path fill="#12750D" d="M39 41h1v1h-1z"/><path fill="#A2C732" d="M40 41h1v1h-1zM41 41h1v1h-1z"/><path fill="#80BC40" d="M42 41h1v1h-1zM43 41h1v1h-1zM44 41h1v1h-1z"/><path fill="#A2C732" d="M45 41h1v1h-1zM46 41h1v1h-1zM47 41h1v1h-1z"/><path fill="#12750D" d="M48 41h1v1h-1z"/><path fill="#80BC40" d="M49 41h1v1h-1zM50 41h1v1h-1z"/><path fill="#A2C732" d="M51 41h1v1h-1z"/><path fill="#FCC6A1" d="M52 41h1v1h-1zM53 41h1v1h-1zM54 41h1v1h-1z"/><path fill="#2E222F" d="M55 41h1v1h-1zM56 41h1v1h-1zM1 42h1v1H1zM2 42h1v1H2z"/><path fill="#FCC6A1" d="M3 42h1v1H3zM4 42h1v1H4zM5 42h1v1H5z"/><path fill="#2E222F" d="M6 42h1v1H6zM7 42h1v1H7z"/><path fill="#9E4539" d="M8 42h1v1H8zM9 42h1v1H9zM10 42h1v1h-1z"/><path fill="#934035" d="M11 42h1v1h-1z"/><path fill="#2E222F" d="M12 42h1v1h-1zM13 42h1v1h-1z"/><path fill="#FCC6A1" d="M14 42h1v1h-1zM15 42h1v1h-1z"/><path fill="#2E222F" d="M16 42h1v1h-1z"/><path fill="#9E4539" d="M17 42h1v1h-1zM18 42h1v1h-1z"/><path fill="#934035" d="M19 42h1v1h-1zM20 42h1v1h-1zM21 42h1v1h-1z"/><path fill="#2E222F" d="M22 42h1v1h-1z"/><path fill="#FCC6A1" d="M23 42h1v1h-1zM24 42h1v1h-1zM25 42h1v1h-1z"/><path fill="#2E222F" d="M26 42h1v1h-1z"/><path fill="#80BC40" d="M27 42h1v1h-1z"/><path fill="#A2C732" d="M28 42h1v1h-1z"/><path fill="#EEBB98" d="M29 42h1v1h-1z"/><path fill="#FCC6A1" d="M30 42h1v1h-1zM31 42h1v1h-1zM32 42h1v1h-1zM33 42h1v1h-1z"/><path fill="#2E222F" d="M34 42h1v1h-1zM35 42h1v1h-1z"/><path fill="#FCC6A1" d="M36 42h1v1h-1zM37 42h1v1h-1zM38 42h1v1h-1z"/><path fill="#9E4539" d="M39 42h1v1h-1zM40 42h1v1h-1zM41 42h1v1h-1zM42 42h1v1h-1zM43 42h1v1h-1zM44 42h1v1h-1zM45 42h1v1h-1zM46 42h1v1h-1zM47 42h1v1h-1zM48 42h1v1h-1zM49 42h1v1h-1zM50 42h1v1h-1zM51 42h1v1h-1z"/><path fill="#FCC6A1" d="M52 42h1v1h-1zM53 42h1v1h-1zM54 42h1v1h-1z"/><path fill="#2E222F" d="M55 42h1v1h-1zM56 42h1v1h-1zM1 43h1v1H1zM2 43h1v1H2z"/><path fill="#FCC6A1" d="M3 43h1v1H3zM4 43h1v1H4zM5 43h1v1H5z"/><path fill="#2E222F" d="M6 43h1v1H6zM7 43h1v1H7z"/><path fill="#9E4539" d="M8 43h1v1H8zM9 43h1v1H9zM10 43h1v1h-1z"/><path fill="#934035" d="M11 43h1v1h-1z"/><path fill="#2E222F" d="M12 43h1v1h-1zM13 43h1v1h-1z"/><path fill="#FCC6A1" d="M14 43h1v1h-1zM15 43h1v1h-1z"/><path fill="#2E222F" d="M16 43h1v1h-1z"/><path fill="#9E4539" d="M17 43h1v1h-1zM18 43h1v1h-1zM19 43h1v1h-1zM20 43h1v1h-1z"/><path fill="#934035" d="M21 43h1v1h-1zM22 43h1v1h-1z"/><path fill="#2E222F" d="M23 43h1v1h-1z"/><path fill="#FCC6A1" d="M24 43h1v1h-1zM25 43h1v1h-1z"/><path fill="#2E222F" d="M26 43h1v1h-1z"/><path fill="#A2C732" d="M27 43h1v1h-1zM28 43h1v1h-1z"/><path fill="#EEBB98" d="M29 43h1v1h-1z"/><path fill="#FCC6A1" d="M30 43h1v1h-1zM31 43h1v1h-1zM32 43h1v1h-1zM33 43h1v1h-1z"/><path fill="#2E222F" d="M34 43h1v1h-1zM35 43h1v1h-1z"/><path fill="#FCC6A1" d="M36 43h1v1h-1zM37 43h1v1h-1zM38 43h1v1h-1zM39 43h1v1h-1zM40 43h1v1h-1zM41 43h1v1h-1zM42 43h1v1h-1zM43 43h1v1h-1zM44 43h1v1h-1zM45 43h1v1h-1zM46 43h1v1h-1zM47 43h1v1h-1zM48 43h1v1h-1zM49 43h1v1h-1zM50 43h1v1h-1zM51 43h1v1h-1zM52 43h1v1h-1zM53 43h1v1h-1zM54 43h1v1h-1z"/><path fill="#2E222F" d="M55 43h1v1h-1zM56 43h1v1h-1zM1 44h1v1H1zM2 44h1v1H2z"/><path fill="#FCC6A1" d="M3 44h1v1H3zM4 44h1v1H4zM5 44h1v1H5z"/><path fill="#2E222F" d="M6 44h1v1H6zM7 44h1v1H7z"/><path fill="#9E4539" d="M8 44h1v1H8zM9 44h1v1H9zM10 44h1v1h-1z"/><path fill="#934035" d="M11 44h1v1h-1z"/><path fill="#2E222F" d="M12 44h1v1h-1zM13 44h1v1h-1z"/><path fill="#FCC6A1" d="M14 44h1v1h-1zM15 44h1v1h-1z"/><path fill="#2E222F" d="M16 44h1v1h-1z"/><path fill="#9E4539" d="M17 44h1v1h-1zM18 44h1v1h-1zM19 44h1v1h-1zM20 44h1v1h-1zM21 44h1v1h-1z"/><path fill="#934035" d="M22 44h1v1h-1z"/><path fill="#2E222F" d="M23 44h1v1h-1z"/><path fill="#FCC6A1" d="M24 44h1v1h-1zM25 44h1v1h-1zM26 44h1v1h-1z"/><path fill="#2E222F" d="M27 44h1v1h-1z"/><path fill="#EEBB98" d="M28 44h1v1h-1zM29 44h1v1h-1z"/><path fill="#FCC6A1" d="M30 44h1v1h-1zM31 44h1v1h-1zM32 44h1v1h-1zM33 44h1v1h-1z"/><path fill="#2E222F" d="M34 44h1v1h-1zM35 44h1v1h-1z"/><path fill="#FCC6A1" d="M36 44h1v1h-1zM37 44h1v1h-1zM38 44h1v1h-1zM39 44h1v1h-1zM40 44h1v1h-1zM41 44h1v1h-1zM42 44h1v1h-1zM43 44h1v1h-1zM44 44h1v1h-1zM45 44h1v1h-1zM46 44h1v1h-1zM47 44h1v1h-1zM48 44h1v1h-1zM49 44h1v1h-1zM50 44h1v1h-1zM51 44h1v1h-1zM52 44h1v1h-1zM53 44h1v1h-1zM54 44h1v1h-1z"/><path fill="#2E222F" d="M55 44h1v1h-1zM56 44h1v1h-1zM1 45h1v1H1zM2 45h1v1H2z"/><path fill="#FCC6A1" d="M3 45h1v1H3zM4 45h1v1H4zM5 45h1v1H5z"/><path fill="#2E222F" d="M6 45h1v1H6zM7 45h1v1H7z"/><path fill="#9E4539" d="M8 45h1v1H8zM9 45h1v1H9zM10 45h1v1h-1z"/><path fill="#934035" d="M11 45h1v1h-1z"/><path fill="#2E222F" d="M12 45h1v1h-1zM13 45h1v1h-1z"/><path fill="#FCC6A1" d="M14 45h1v1h-1zM15 45h1v1h-1z"/><path fill="#2E222F" d="M16 45h1v1h-1z"/><path fill="#9E4539" d="M17 45h1v1h-1zM18 45h1v1h-1zM19 45h1v1h-1zM20 45h1v1h-1zM21 45h1v1h-1z"/><path fill="#934035" d="M22 45h1v1h-1zM23 45h1v1h-1z"/><path fill="#2E222F" d="M24 45h1v1h-1z"/><path fill="#FCC6A1" d="M25 45h1v1h-1zM26 45h1v1h-1z"/><path fill="#2E222F" d="M27 45h1v1h-1z"/><path fill="#EEBB98" d="M28 45h1v1h-1z"/><path fill="#FCC6A1" d="M29 45h1v1h-1zM30 45h1v1h-1zM31 45h1v1h-1zM32 45h1v1h-1zM33 45h1v1h-1z"/><path fill="#2E222F" d="M34 45h1v1h-1zM35 45h1v1h-1z"/><path fill="#FCC6A1" d="M36 45h1v1h-1zM37 45h1v1h-1zM38 45h1v1h-1zM39 45h1v1h-1zM40 45h1v1h-1zM41 45h1v1h-1zM42 45h1v1h-1zM43 45h1v1h-1zM44 45h1v1h-1zM45 45h1v1h-1zM46 45h1v1h-1zM47 45h1v1h-1zM48 45h1v1h-1zM49 45h1v1h-1zM50 45h1v1h-1zM51 45h1v1h-1zM52 45h1v1h-1zM53 45h1v1h-1zM54 45h1v1h-1z"/><path fill="#2E222F" d="M55 45h1v1h-1zM56 45h1v1h-1zM1 46h1v1H1zM2 46h1v1H2zM3 46h1v1H3zM4 46h1v1H4zM5 46h1v1H5zM6 46h1v1H6zM7 46h1v1H7zM8 46h1v1H8zM9 46h1v1H9zM10 46h1v1h-1zM11 46h1v1h-1zM12 46h1v1h-1zM13 46h1v1h-1zM14 46h1v1h-1zM15 46h1v1h-1zM16 46h1v1h-1zM17 46h1v1h-1zM18 46h1v1h-1zM19 46h1v1h-1zM20 46h1v1h-1zM21 46h1v1h-1zM22 46h1v1h-1zM23 46h1v1h-1zM24 46h1v1h-1zM25 46h1v1h-1zM26 46h1v1h-1zM27 46h1v1h-1zM28 46h1v1h-1zM29 46h1v1h-1zM30 46h1v1h-1zM31 46h1v1h-1zM32 46h1v1h-1zM33 46h1v1h-1zM34 46h1v1h-1zM35 46h1v1h-1zM36 46h1v1h-1zM37 46h1v1h-1zM38 46h1v1h-1zM39 46h1v1h-1zM40 46h1v1h-1zM41 46h1v1h-1zM42 46h1v1h-1zM43 46h1v1h-1zM44 46h1v1h-1zM45 46h1v1h-1zM46 46h1v1h-1zM47 46h1v1h-1zM48 46h1v1h-1zM49 46h1v1h-1zM50 46h1v1h-1zM51 46h1v1h-1zM52 46h1v1h-1zM53 46h1v1h-1zM54 46h1v1h-1zM55 46h1v1h-1zM56 46h1v1h-1zM1 47h1v1H1zM2 47h1v1H2zM3 47h1v1H3zM4 47h1v1H4zM5 47h1v1H5zM6 47h1v1H6zM7 47h1v1H7zM8 47h1v1H8zM9 47h1v1H9zM10 47h1v1h-1zM11 47h1v1h-1zM12 47h1v1h-1zM13 47h1v1h-1zM14 47h1v1h-1zM15 47h1v1h-1zM16 47h1v1h-1zM17 47h1v1h-1zM18 47h1v1h-1zM19 47h1v1h-1zM20 47h1v1h-1zM21 47h1v1h-1zM22 47h1v1h-1zM23 47h1v1h-1zM24 47h1v1h-1zM25 47h1v1h-1zM26 47h1v1h-1zM27 47h1v1h-1zM28 47h1v1h-1zM29 47h1v1h-1zM30 47h1v1h-1zM31 47h1v1h-1zM32 47h1v1h-1zM33 47h1v1h-1zM34 47h1v1h-1zM35 47h1v1h-1zM36 47h1v1h-1zM37 47h1v1h-1zM38 47h1v1h-1zM39 47h1v1h-1zM40 47h1v1h-1zM41 47h1v1h-1zM42 47h1v1h-1zM43 47h1v1h-1zM44 47h1v1h-1zM45 47h1v1h-1zM46 47h1v1h-1zM47 47h1v1h-1zM48 47h1v1h-1zM49 47h1v1h-1zM50 47h1v1h-1zM51 47h1v1h-1zM52 47h1v1h-1zM53 47h1v1h-1zM54 47h1v1h-1zM55 47h1v1h-1zM56 47h1v1h-1z"/></svg>